<svg width="25" height="25" viewBox="0 0 500 500" fill="none" xmlns="http://www.w3.org/2000/svg">
<g clip-path="url(#clip0_217_7)">
<path fill-rule="evenodd" clip-rule="evenodd" d="M52.0833 187.5C52.0756 179.942 54.8071 172.638 59.7719 166.939C64.7367 161.241 71.5985 157.535 79.0862 156.508C86.5739 155.481 94.1801 157.202 100.496 161.353C106.812 165.503 111.41 171.803 113.438 179.083C154 314.542 345.896 314.562 386.542 179.187C387.684 175.228 389.598 171.534 392.173 168.317C394.749 165.101 397.935 162.425 401.549 160.445C405.162 158.464 409.132 157.218 413.229 156.778C417.326 156.338 421.47 156.712 425.422 157.88C429.373 159.047 433.055 160.985 436.255 163.581C439.455 166.177 442.11 169.381 444.068 173.007C446.025 176.633 447.245 180.611 447.659 184.71C448.073 188.81 447.672 192.952 446.479 196.896C439.359 221.22 427.904 244.059 412.667 264.312L432.667 284.312C435.65 287.197 438.029 290.646 439.665 294.459C441.301 298.273 442.161 302.374 442.195 306.523C442.229 310.672 441.437 314.787 439.864 318.627C438.29 322.467 435.968 325.955 433.033 328.887C430.097 331.82 426.607 334.139 422.766 335.708C418.925 337.278 414.809 338.067 410.66 338.029C406.511 337.991 402.41 337.127 398.599 335.487C394.787 333.847 391.34 331.465 388.458 328.479L367.417 307.437C356.479 314.927 344.824 321.313 332.625 326.5L337.688 345.375C339.608 353.303 338.352 361.669 334.188 368.683C330.024 375.698 323.281 380.807 315.401 382.917C307.522 385.028 299.129 383.974 292.015 379.98C284.902 375.986 279.633 369.368 277.333 361.542L272.104 342.062C257.417 343.583 242.583 343.583 227.896 342.062L222.688 361.542C220.544 369.548 215.307 376.375 208.13 380.52C200.953 384.665 192.423 385.79 184.417 383.646C176.41 381.502 169.584 376.265 165.438 369.088C161.293 361.911 160.169 353.381 162.313 345.375L167.354 326.479C155.162 321.298 143.515 314.919 132.583 307.437L111.542 328.479C108.66 331.465 105.213 333.847 101.401 335.487C97.5895 337.127 93.4893 337.991 89.34 338.029C85.1907 338.067 81.0753 337.278 77.2341 335.708C73.3929 334.139 69.9027 331.82 66.9671 328.887C64.0316 325.955 61.7096 322.467 60.1365 318.627C58.5634 314.787 57.7708 310.672 57.8049 306.523C57.839 302.374 58.6991 298.273 60.335 294.459C61.971 290.646 64.35 287.197 67.3333 284.312L87.3333 264.312C72.1304 244.093 60.6976 221.297 53.5833 197.021C52.594 193.944 52.088 190.732 52.0833 187.5Z" fill="black"/>
</g>
</svg>
