<svg width="25" height="25" viewBox="0 0 500 500" fill="none" xmlns="http://www.w3.org/2000/svg">
<path d="M324.935 249.969C324.935 289.69 291.325 321.89 249.864 321.89C208.404 321.89 174.794 289.69 174.794 249.969C174.794 210.247 208.404 178.047 249.864 178.047C291.325 178.047 324.935 210.247 324.935 249.969ZM250 100.217C207.073 100.407 162.577 110.858 120.457 130.866C89.1825 146.333 58.7042 168.156 32.2475 195.091C19.2533 208.841 2.67958 228.75 0 249.992C0.316667 268.392 20.0542 291.104 32.2475 304.893C57.0571 330.771 86.7417 351.984 120.457 369.135C159.736 388.197 203.213 399.173 250 399.783C292.968 399.59 337.453 389.019 379.528 369.135C410.802 353.667 441.295 331.829 467.752 304.893C480.746 291.144 497.32 271.234 500 249.992C499.683 231.592 479.946 208.879 467.752 195.09C442.943 169.213 413.243 148.016 379.528 130.865C340.268 111.817 296.684 100.917 250 100.217ZM249.968 137.404C315.018 137.404 367.75 187.818 367.75 250.008C367.75 312.198 315.018 362.612 249.968 362.612C184.919 362.612 132.187 312.198 132.187 250.008C132.187 187.818 184.919 137.404 249.968 137.404Z" fill="black"/>
</svg>
